# xmcd
#
# Track frame offsets: 
#        150
#        12587
#        26132
#        38087
#        49177
#        59995
#        74905
#        88575
#        103095
#        113560
#        127072
#        148187
#        163312
#        176817
#        189750
#
# Disc length: 2746 seconds
#
# Revision: 2
# Processed by: cddbd v1.5.2PL0 Copyright (c) Steve Scherf et al.
# Submitted via: ExactAudioCopy v1.0b1
#
DISCID=e90ab80f
DTITLE=Various Artist - Classic Country Vol. 22 Great Country Gospel Disc 1
DYEAR=2001
DGENRE=Country
TTITLE0=Hank Williams - I Saw The Light
TTITLE1=Grandpa Jones - Turn Your Radio On
TTITLE2=Ray Price - Rock Of Ages
TTITLE3=Elvis Presley - Crying In The Chapel
TTITLE4=Loretta Lynn - Is The Sweet Bye And Bye
TTITLE5=George Jones - Amazing Grace
TTITLE6=Tammy Wynette - May The Good Lord Bless And Keep You
TTITLE7=Red Foley - Peace In The Valley
TTITLE8=Ferlin Husky - Wings Of A Dove
TTITLE9=Claude Gray - Family Bible
TTITLE10=Willie Nelson - Uncloudy Day
TTITLE11=Jordanaires - Swing Low Sweet Chariot
TTITLE12=Jim Reeves - It Is No Secret (What God Can Do)
TTITLE13=Tennessee Ernie Ford - Precious Memories
TTITLE14=Debby Boone - You Light Up My Life
EXTD=Time-Life Music
EXTT0=
EXTT1=
EXTT2=
EXTT3=
EXTT4=
EXTT5=
EXTT6=
EXTT7=
EXTT8=
EXTT9=
EXTT10=
EXTT11=
EXTT12=
EXTT13=
EXTT14=
PLAYORDER=
